<svg id="Layer_1" data-name="Layer 1" xmlns="http://www.w3.org/2000/svg" viewBox="0 0 800 800"><defs><style>.cls-1{fill:#fbb03b;}</style></defs><path class="cls-1" d="M652,509.06l-24.69,19.12,24.53,31.68C632.38,570.25,605.13,579,566.64,579c-254.94,0-254.94-383.23,0-383.23a181.91,181.91,0,0,1,81.88,19.51L635.67,232l24.73,19.07,85.3-110.61L721,121.37l-10.92,14.16-2.53,3.27-1.29,1.67c-42.75-23.79-91.77-37.35-140.39-37.35-59.42,0-109.73,13.27-151,35.74a101.14,101.14,0,0,1-96.76.19l-.48-.26A197,197,0,0,0,229.52,115v-.23H45.91L140,202H267a27.14,27.14,0,0,1,27.13,27.14V334.83a19,19,0,0,1-19,19h-123a5,5,0,0,0-5,5v63.23a5,5,0,0,0,5,5h123a19,19,0,0,1,19,19v99.63A27.14,27.14,0,0,1,267,572.81H140L45.91,660.05H229.52v-.2c30.31-.83,60.4-7.85,86.7-23a100.11,100.11,0,0,1,98-1.28c41.38,22.69,91.92,36.11,151.66,36.11,61,0,104.58-12.64,143.71-37.31l.63.81,3,3.86,16.22,21,24.7-19.12Z"/></svg>